# xmcd CD database file
#
# Track frame offsets:
#	210
#	10789
#	21984
#	32642
#	42822
#	54462
#	65378
#	77441
#	88598
#	99258
#	109404
#	120989
#	131696
#	141792
#	151297
#	162812
#	173714
#	185595
#	199822
#	213398
#	226427
#	238840
#	252559
#	265805
#	280214
#	294103
#	307539
#
# Disc length: 4271 seconds
#
# Revision: 0
# Processed by: cddbd v1.5PL3 Copyright (c) Steve Scherf et al.
# Submitted via: CDex 1.50
#
DISCID=6810ad1b
DTITLE=Paul Carman Music - CD Metronome [CD1]
DYEAR=2000
DGENRE=Jazz
TTITLE0=50 bpm ballad
TTITLE1=54 bpm ballad
TTITLE2=57 bpm ballad
TTITLE3=60 bpm ballad
TTITLE4=65 bpm ballad
TTITLE5=70 bpm ballad
TTITLE6=50 bpm swing
TTITLE7=54 bpm swing
TTITLE8=57 bpm swing
TTITLE9=60 bpm swing
TTITLE10=65 bpm swing
TTITLE11=70 bpm swing
TTITLE12=75 bpm swing
TTITLE13=80 bpm swing
TTITLE14=85 bpm swing
TTITLE15=90 bpm swing
TTITLE16=95 bpm swing
TTITLE17=100 bpm swing
TTITLE18=105 bpm swing
TTITLE19=110 bpm swing
TTITLE20=115 bpm swing
TTITLE21=120 bpm swing
TTITLE22=125 bpm swing
TTITLE23=130 bpm swing
TTITLE24=135 bpm swing
TTITLE25=140 bpm swing
TTITLE26=145 bpm swing
EXTD=YEAR: 2000
EXTT0=
EXTT1=
EXTT2=
EXTT3=
EXTT4=
EXTT5=
EXTT6=
EXTT7=
EXTT8=
EXTT9=
EXTT10=
EXTT11=
EXTT12=
EXTT13=
EXTT14=
EXTT15=
EXTT16=
EXTT17=
EXTT18=
EXTT19=
EXTT20=
EXTT21=
EXTT22=
EXTT23=
EXTT24=
EXTT25=
EXTT26=
PLAYORDER=
